<?xml version="1.0" standalone="no"?><!DOCTYPE svg PUBLIC "-//W3C//DTD SVG 1.1//EN" "http://www.w3.org/Graphics/SVG/1.1/DTD/svg11.dtd"><svg t="1563417911354" class="icon" viewBox="0 0 1024 1024" version="1.1" xmlns="http://www.w3.org/2000/svg" p-id="1901" xmlns:xlink="http://www.w3.org/1999/xlink" width="200" height="200"><defs><style type="text/css"></style></defs><path d="M499.30752 330.04288c36.4544-34.7008 75.78112-69.5296 112.56832-96.8832 114.7264-85.30176 382.15168-85.0304 329.80992 157.7344l-0.49152 0.27648c-6.3104 15.00416-75.10528 162.26816-313.09824 79.8848-49.53088-17.14432-95.60576-38.52288-141.0944-58.79808-19.4432 17.37728-38.5664 37.92896-71.45984 77.68832 58.8032 28.48768 131.4688 59.55584 234.18112 83.83744 300.55424 71.05536 346.03008-129.76128 346.03008-129.76128 115.1744 235.37664-149.84704 331.11296-291.96288 302.77632-118.2464-23.57248-228.43392-124.35968-344.88832-191.4624-242.70848 344.67328-519.64672-28.6976-244.44416-134.41792 1.14688-0.4352 2.37312-0.58368 3.55328-0.86272 104.72192-24.92672 165.0176 3.53024 249.20576 45.85216 13.00736-14.3872 38.5024-42.16576 70.52544-74.96448-120.8832-49.9456-244.92032-78.39744-426.01216 15.232 0 0 161.57952-165.8368 383.87712-108.1344 37.58848 9.7536 71.9744 20.81536 103.70048 32zM313.9072 531.4816c-8.76544-4.20096-17.92-7.3984-26.43456-11.76576-132.72832-68.09344-166.27712 11.8528-167.60832 20.95104-2.40128 16.44288 18.37824 90.03264 102.72768 54.74304 41.3824-17.31328 70.04928-43.2128 91.3152-63.92832z m525.05088-168.56064c55.26784-55.4496-67.52-174.16192-210.86208-64.88064-28.60032 21.80608-49.1008 40.78848-66.8672 54.87872 119.71328 45.58848 203.7504 84.224 277.72928 10.00192z" p-id="1902"></path></svg>