<?xml version="1.0" standalone="no"?><!DOCTYPE svg PUBLIC "-//W3C//DTD SVG 1.1//EN" "http://www.w3.org/Graphics/SVG/1.1/DTD/svg11.dtd"><svg t="1563417703423" class="icon" viewBox="0 0 1536 1024" version="1.1" xmlns="http://www.w3.org/2000/svg" p-id="1267" xmlns:xlink="http://www.w3.org/1999/xlink" width="300" height="200"><defs><style type="text/css"></style></defs><path d="M62 812.003c0-82.845 67.18-149.997 149.95-149.997h1050.071c82.817 0 149.95 67.142 149.95 149.997 0 82.845-67.18 149.997-149.95 149.997h-1050.071c-82.817 0-149.95-67.142-149.95-149.997zM99.499 812.003c0 62.146 50.343 112.497 112.451 112.497h1050.071c62.079 0 112.45-50.379 112.45-112.497 0-62.146-50.343-112.497-112.45-112.497h-1050.071c-62.079 0-112.451 50.379-112.451 112.497z" fill="#4A4A4A" p-id="1268"></path><path d="M718.236 80.75c0-10.356 8.394-18.75 18.75-18.75s18.75 8.394 18.75 18.75v618.757h-37.499v-618.757zM305.745 80.75c0.003-10.354 8.396-18.745 18.75-18.745s18.747 8.392 18.75 18.745v618.757h-37.499v-618.757zM1130.728 80.75c0-10.356 8.394-18.75 18.75-18.75s18.75 8.394 18.75 18.75v618.757h-37.499v-618.757zM680.737 793.254h149.997v74.999h-149.997zM1018.229 793.254h149.997v74.999h-149.997z" fill="#4A4A4A" p-id="1269"></path></svg>