<?xml version="1.0" standalone="no"?><!DOCTYPE svg PUBLIC "-//W3C//DTD SVG 1.1//EN" "http://www.w3.org/Graphics/SVG/1.1/DTD/svg11.dtd"><svg t="1563418158278" class="icon" viewBox="0 0 1025 1024" version="1.1" xmlns="http://www.w3.org/2000/svg" p-id="3533" xmlns:xlink="http://www.w3.org/1999/xlink" width="200.1953125" height="200"><defs><style type="text/css"></style></defs><path d="M510.61568 1024c-276.352 0-505.408-224.832-510.528-501.312C-5.09632 240.384 220.24768 6.016 502.42368 0.064L513.43168 0c276.416 0 505.408 224.832 510.528 501.248 5.248 282.176-220.096 516.672-502.4 522.624L510.61568 1024zM513.43168 66.944 503.89568 67.136C258.51968 72.256 62.55168 276.096 67.09568 521.408c4.416 240.128 203.328 435.584 443.456 435.584l9.6-0.128c245.376-5.184 441.408-208.96 436.8-454.336C952.53568 262.336 753.62368 66.944 513.43168 66.944z" p-id="3534"></path><path d="M540.24768 621.952 626.00768 707.712 582.16768 751.616 792.40768 792.32 751.70368 582.08 707.79968 625.92 622.03968 540.16Z" p-id="3535"></path><path d="M483.79968 401.92 398.03968 316.16 441.87968 272.256 231.63968 231.552 272.34368 441.792 316.24768 397.952 402.00768 483.712Z" p-id="3536"></path><path d="M402.00768 540.16 316.24768 625.92 272.34368 582.08 231.63968 792.32 441.87968 751.616 398.03968 707.712 483.79968 621.952Z" p-id="3537"></path><path d="M622.03968 483.712 707.79968 397.952 751.70368 441.792 792.40768 231.552 582.16768 272.256 626.00768 316.16 540.24768 401.92Z" p-id="3538"></path></svg>